<svg width="1280" height="640" viewBox="0 0 1280 640" fill="none" xmlns="http://www.w3.org/2000/svg">
  <defs>
    <linearGradient id="bg" x1="0" y1="0" x2="1280" y2="640" gradientUnits="userSpaceOnUse">
      <stop stop-color="#0C1227"/>
      <stop offset="0.55" stop-color="#121B3A"/>
      <stop offset="1" stop-color="#24141F"/>
    </linearGradient>
    <linearGradient id="accent" x1="205" y1="128" x2="691" y2="128" gradientUnits="userSpaceOnUse">
      <stop stop-color="#2EE6C9"/>
      <stop offset="1" stop-color="#FFB347"/>
    </linearGradient>
    <filter id="shadow" x="-20%" y="-20%" width="140%" height="140%">
      <feDropShadow dx="0" dy="10" stdDeviation="14" flood-color="#000000" flood-opacity="0.35"/>
    </filter>
  </defs>

  <rect width="1280" height="640" rx="28" fill="url(#bg)"/>

  <g opacity="0.2">
    <rect x="78" y="58" width="34" height="34" fill="#FF00FF"/>
    <rect x="114" y="58" width="34" height="34" fill="#FF00FF"/>
    <rect x="150" y="58" width="34" height="34" fill="#2EE6C9"/>
    <rect x="1114" y="92" width="30" height="30" fill="#FFB347"/>
    <rect x="1148" y="92" width="30" height="30" fill="#FFB347"/>
    <rect x="1182" y="92" width="30" height="30" fill="#2EE6C9"/>
    <rect x="1100" y="496" width="24" height="24" fill="#FF00FF"/>
    <rect x="1128" y="496" width="24" height="24" fill="#FF00FF"/>
    <rect x="1156" y="496" width="24" height="24" fill="#2EE6C9"/>
  </g>

  <rect x="72" y="74" width="1136" height="492" rx="26" stroke="#2E3A6A" stroke-width="2"/>
  <rect x="90" y="92" width="1100" height="456" rx="20" fill="#0E142E" stroke="#35457A" stroke-width="2"/>

  <g filter="url(#shadow)">
    <rect x="132" y="148" width="520" height="324" rx="18" fill="#0A1024" stroke="#4B5E9A" stroke-width="2"/>
    <rect x="162" y="182" width="118" height="118" rx="10" fill="#151F45"/>
    <rect x="162" y="316" width="118" height="118" rx="10" fill="#151F45"/>
    <rect x="296" y="182" width="118" height="118" rx="10" fill="#151F45"/>
    <rect x="296" y="316" width="118" height="118" rx="10" fill="#151F45"/>

    <path d="M199 242L223 202L246 227L237 274L205 276L199 242Z" fill="#2EE6C9"/>
    <path d="M335 232L355 197L381 213L378 262L340 273L323 248L335 232Z" fill="#FFB347"/>
    <path d="M200 380L214 348L247 351L253 383L232 412L202 404L200 380Z" fill="#76A6FF"/>
    <path d="M324 382L345 340L382 357L385 389L358 410L327 404L324 382Z" fill="#FF6B6B"/>

    <rect x="448" y="176" width="166" height="258" rx="14" fill="#131D42"/>
    <rect x="472" y="202" width="118" height="12" rx="6" fill="#2EE6C9"/>
    <rect x="472" y="228" width="86" height="12" rx="6" fill="#7F94D6"/>
    <rect x="472" y="268" width="80" height="80" rx="10" fill="#FF00FF"/>
    <rect x="562" y="268" width="28" height="80" rx="8" fill="#0E142E"/>
    <rect x="472" y="360" width="118" height="18" rx="9" fill="#202B58"/>
    <rect x="472" y="388" width="98" height="18" rx="9" fill="#202B58"/>
  </g>

  <g filter="url(#shadow)">
    <rect x="692" y="146" width="456" height="328" rx="20" fill="#0B1127" stroke="#4B5E9A" stroke-width="2"/>
    <text x="740" y="224" fill="url(#accent)" font-family="Segoe UI, Arial, sans-serif" font-size="24" font-weight="700" letter-spacing="2">AGENT SPRITE FORGE</text>
    <text x="740" y="308" fill="#FFFFFF" font-family="Segoe UI, Arial, sans-serif" font-size="64" font-weight="800">2D assets,</text>
    <text x="740" y="382" fill="#FFFFFF" font-family="Segoe UI, Arial, sans-serif" font-size="64" font-weight="800">planned by agents.</text>
    <text x="740" y="432" fill="#B9C4F3" font-family="Consolas, Menlo, monospace" font-size="24">raw sheet → cleanup → split → align → transparent export</text>

    <rect x="740" y="470" width="124" height="38" rx="19" fill="#17224A"/>
    <rect x="878" y="470" width="160" height="38" rx="19" fill="#17224A"/>
    <rect x="1052" y="470" width="72" height="38" rx="19" fill="#17224A"/>
    <text x="764" y="495" fill="#2EE6C9" font-family="Consolas, Menlo, monospace" font-size="18">agent-first</text>
    <text x="902" y="495" fill="#FFB347" font-family="Consolas, Menlo, monospace" font-size="18">transparent-gif</text>
    <text x="1076" y="495" fill="#FF79C6" font-family="Consolas, Menlo, monospace" font-size="18">qc</text>
  </g>
</svg>
